HIERARCHY
ROOT joint_Root
{
	OFFSET 0.0 0.0 0.0
	CHANNELS 6 Xposition Yposition Zposition Zrotation Xrotation Yrotation 
	JOINT Hips
	{
		OFFSET -0.726466 93.3139 -2.00062
		CHANNELS 6 Xposition Yposition Zposition Zrotation Xrotation Yrotation 
		JOINT Spine
		{
			OFFSET 15.7357 0.0 0.0
			CHANNELS 6 Xposition Yposition Zposition Zrotation Xrotation Yrotation 
			JOINT Chest
			{
				OFFSET 8.98455 -0.406207 0.0
				CHANNELS 6 Xposition Yposition Zposition Zrotation Xrotation Yrotation 
				JOINT Neck
				{
					OFFSET 16.3773 0.0 0.0
					CHANNELS 6 Xposition Yposition Zposition Zrotation Xrotation Yrotation 
					JOINT Head
					{
						OFFSET 6.45672 0.0 0.0
						CHANNELS 6 Xposition Yposition Zposition Zrotation Xrotation Yrotation 
						End Site
						{
							OFFSET 0.0 0.0 0.0
						}
					}
				}
				JOINT Shoulder_L
				{
					OFFSET 12.9942 -0.242716 4.98039
					CHANNELS 6 Xposition Yposition Zposition Zrotation Xrotation Yrotation 
					JOINT UpperArm_L
					{
						OFFSET 5.34809 0.0 0.0
						CHANNELS 6 Xposition Yposition Zposition Zrotation Xrotation Yrotation 
						JOINT LowerArm_L
						{
							OFFSET 24.3286 1.87007e-05 0.0
							CHANNELS 6 Xposition Yposition Zposition Zrotation Xrotation Yrotation 
							JOINT Hand_L
							{
								OFFSET 22.2916 0.0 0.0
								CHANNELS 6 Xposition Yposition Zposition Zrotation Xrotation Yrotation 
								End Site
								{
									OFFSET 0.0 0.0 0.0
								}
							}
						}
					}
				}
				JOINT Shoulder_R
				{
					OFFSET 12.9945 -0.242716 -4.98039
					CHANNELS 6 Xposition Yposition Zposition Zrotation Xrotation Yrotation 
					JOINT UpperArm_R
					{
						OFFSET -5.34813 0.0 0.0
						CHANNELS 6 Xposition Yposition Zposition Zrotation Xrotation Yrotation 
						JOINT LowerArm_R
						{
							OFFSET -24.3289 0.000322201 0.0
							CHANNELS 6 Xposition Yposition Zposition Zrotation Xrotation Yrotation 
							JOINT Hand_R
							{
								OFFSET -22.2915 -0.000108084 0.0
								CHANNELS 6 Xposition Yposition Zposition Zrotation Xrotation Yrotation 
								End Site
								{
									OFFSET 0.0 0.0 0.0
								}
							}
						}
					}
				}
			}
		}
		JOINT UpperLeg_L
		{
			OFFSET -2.19248 -6.46944 0.0
			CHANNELS 6 Xposition Yposition Zposition Zrotation Xrotation Yrotation 
			JOINT LowerLeg_L
			{
				OFFSET 39.0811 0.0 -1.23785e-05
				CHANNELS 6 Xposition Yposition Zposition Zrotation Xrotation Yrotation 
				JOINT Foot_L
				{
					OFFSET 40.9854 0.0 -1.26872e-05
					CHANNELS 6 Xposition Yposition Zposition Zrotation Xrotation Yrotation 
					JOINT Toes_L
					{
						OFFSET 11.7543 0.0 0.0
						CHANNELS 6 Xposition Yposition Zposition Zrotation Xrotation Yrotation 
						End Site
						{
							OFFSET 0.0 0.0 0.0
						}
					}
				}
			}
		}
		JOINT UpperLeg_R
		{
			OFFSET -2.19251 6.46944 0.0
			CHANNELS 6 Xposition Yposition Zposition Zrotation Xrotation Yrotation 
			JOINT LowerLeg_R
			{
				OFFSET -39.0811 -0.00228153 -0.0401928
				CHANNELS 6 Xposition Yposition Zposition Zrotation Xrotation Yrotation 
				JOINT Foot_R
				{
					OFFSET -40.9854 0.0 0.0
					CHANNELS 6 Xposition Yposition Zposition Zrotation Xrotation Yrotation 
					JOINT Toes_R
					{
						OFFSET -11.7543 0.0 0.0
						CHANNELS 6 Xposition Yposition Zposition Zrotation Xrotation Yrotation 
						End Site
						{
							OFFSET 0.0 0.0 0.0
						}
					}
				}
			}
		}
	}
}
MOTION
Frames:	4
Frame Time:	0.0333333
0.000000 0.000000 0.000000 0.000000 0.000000 -0.000000 -0.874032 92.311000 -1.364860 88.229900 -0.944840 4.966080 15.735700 0.000005 -0.000001 83.682600 85.062700 -83.003700 8.984550 -0.406207 -0.000000 2.056020 -1.119650 1.376640 16.377300 -0.000001 -0.000001 2.259690 -2.074320 -0.371033 6.456720 -0.000001 -0.000000 4.287960 -2.639450 -1.091480 12.994200 -0.242716 4.980390 -89.957600 -0.135693 -72.644300 5.348090 -0.000007 -0.000001 -67.400000 39.684900 -16.312100 24.328600 0.000019 0.000005 1.717660 4.410340 -21.303700 22.291600 -0.000001 0.000005 3.499140 5.462400 -5.088620 12.994500 -0.242716 -4.980390 88.225000 5.775070 -72.882700 -5.348130 -0.000001 -0.000004 -65.465800 41.503000 -15.713300 -24.328900 0.000322 -0.000009 2.143410 7.531970 -15.943000 -22.291500 -0.000108 -0.000004 9.323560 5.401360 -2.981780 -2.192480 -6.469440 -0.000000 -175.203000 -8.496630 -2.352480 39.081100 -0.000007 -0.000012 -0.108369 0.254195 23.089800 40.985400 -0.000006 -0.000013 -0.178929 4.357490 -65.866200 11.754300 -0.000000 0.000003 -0.000033 -0.000390 -16.592800 -2.192510 6.469440 -0.000001 179.727000 14.150700 -179.847000 -39.081100 -0.002282 -0.040193 -0.059922 0.175005 19.869100 -40.985400 0.000008 0.000006 3.267700 8.477170 -65.536200 -11.754300 -0.000006 -0.000006 -0.008792 -0.094375 -20.417000
0.000000 0.000000 0.000000 0.000000 0.000000 -0.000000 -0.916881 92.308200 -1.393710 88.222400 -0.859550 5.026410 15.735700 0.000005 -0.000001 83.538500 85.039000 -82.835100 8.984550 -0.406207 -0.000000 2.100850 -1.150580 1.426650 16.377300 -0.000001 -0.000001 2.228080 -2.132240 -0.289170 6.456720 -0.000001 -0.000000 4.369320 -2.699520 -1.159380 12.994200 -0.242716 4.980390 -90.020400 0.065121 -72.619700 5.348090 -0.000007 -0.000001 -66.825800 38.302900 -17.117600 24.328600 0.000019 0.000005 1.470470 3.681520 -21.791000 22.291600 -0.000001 0.000005 2.824790 5.466940 -5.256270 12.994500 -0.242716 -4.980390 88.243100 5.709600 -72.864700 -5.348130 -0.000001 -0.000004 -65.597900 41.417400 -15.619800 -24.328900 0.000322 -0.000009 2.150250 7.582780 -15.890200 -22.291500 -0.000108 -0.000004 9.379100 5.401640 -2.990770 -2.192480 -6.469440 -0.000000 -175.165000 -8.411880 -2.350080 39.081100 -0.000007 -0.000012 -0.108073 0.253019 23.129000 40.985400 -0.000006 -0.000013 -0.197999 4.401370 -65.850800 11.754300 -0.000000 0.000003 -0.000036 -0.000421 -16.594000 -2.192510 6.469440 -0.000001 179.752000 14.202900 -179.808000 -39.081100 -0.002282 -0.040193 -0.059544 0.173746 19.891400 -40.985400 0.000008 0.000006 3.297750 8.447960 -65.543100 -11.754300 -0.000006 -0.000006 -0.008855 -0.094871 -20.437200
0.000000 0.000000 0.000000 0.000000 0.000000 -0.000000 -0.968131 92.308900 -1.441560 88.246200 -0.671137 5.055120 15.735700 0.000005 -0.000001 83.666200 85.033200 -82.948700 8.984550 -0.406207 -0.000000 2.114840 -1.130510 1.454370 16.377300 -0.000001 -0.000001 2.256240 -2.267700 -0.242720 6.456720 -0.000001 -0.000000 4.445570 -2.882000 -1.238700 12.994200 -0.242716 4.980390 -90.116200 0.370261 -72.582600 5.348090 -0.000007 -0.000001 -65.563900 35.865300 -18.728300 24.328600 0.000019 0.000005 0.960575 2.224880 -23.360500 22.291600 -0.000001 0.000005 2.797100 5.474010 -5.520090 12.994500 -0.242716 -4.980390 88.277100 5.604030 -72.880100 -5.348130 -0.000001 -0.000004 -65.859800 41.194800 -15.380200 -24.328900 0.000322 -0.000009 2.161100 7.630920 -15.871200 -22.291500 -0.000108 -0.000004 9.301810 5.399850 -2.932540 -2.192480 -6.469440 -0.000000 -175.144000 -8.447670 -2.387260 39.081100 -0.000007 -0.000012 -0.107765 0.252235 23.134200 40.985400 -0.000006 -0.000013 -0.191556 4.585720 -65.794600 11.754300 -0.000000 0.000003 -0.000038 -0.000450 -16.595100 -2.192510 6.469440 -0.000001 179.749000 14.315000 -179.797000 -39.081100 -0.002282 -0.040193 -0.060234 0.175613 19.895400 -40.985400 0.000008 0.000006 3.237590 8.398900 -65.521300 -11.754300 -0.000006 -0.000006 -0.009057 -0.096448 -20.501700
0.000000 0.000000 0.000000 0.000000 0.000000 -0.000000 -1.047680 92.312200 -1.511930 88.268700 -0.312091 5.127500 15.735700 0.000005 -0.000001 83.991000 85.032500 -83.255000 8.984550 -0.406207 -0.000000 2.122000 -1.075560 1.490400 16.377300 -0.000001 -0.000001 2.390800 -2.399610 -0.261294 6.456720 -0.000001 -0.000000 4.578410 -3.180210 -1.302990 12.994200 -0.242716 4.980390 -90.209000 0.663993 -72.529300 5.348090 -0.000007 -0.000001 -63.501300 32.716200 -21.417600 24.328600 0.000019 0.000005 0.532308 1.074870 -26.346600 22.291600 -0.000001 0.000005 3.718830 5.489750 -6.125420 12.994500 -0.242716 -4.980390 88.294500 5.538990 -72.855900 -5.348130 -0.000001 -0.000004 -66.096000 40.951400 -15.066700 -24.328900 0.000322 -0.000009 2.181390 7.758380 -15.764300 -22.291500 -0.000108 -0.000004 9.265460 5.398860 -2.900450 -2.192480 -6.469440 -0.000000 -175.124000 -8.238090 -2.422560 39.081100 -0.000007 -0.000012 -0.107569 0.251782 23.133800 40.985400 -0.000006 -0.000013 -0.205695 4.760180 -65.706400 11.754300 -0.000000 0.000003 -0.000039 -0.000452 -16.595200 -2.192510 6.469440 -0.000001 179.746000 14.609500 -179.751000 -39.081100 -0.002282 -0.040193 -0.061800 0.179875 19.902200 -40.985400 0.000008 0.000006 3.269740 8.297130 -65.508900 -11.754300 -0.000006 -0.000006 -0.008985 -0.095887 -20.478700
